<svg width="16" height="16" viewBox="0 0 16 16" fill="none" xmlns="http://www.w3.org/2000/svg">
<path d="M4.86214 4.8005C4.79112 4.72148 4.74962 4.62641 4.74294 4.52741C4.73626 4.42842 4.7647 4.32999 4.82463 4.24468C4.88456 4.15937 4.97326 4.09106 5.07942 4.04844C5.18559 4.00583 5.3044 3.99085 5.42069 4.00542C5.57625 4.02425 5.71658 4.0944 5.81085 4.20044L8.30122 7.00073V0.500052C8.30122 0.36743 8.36369 0.24024 8.47488 0.146462C8.58608 0.052684 8.7369 0 8.89416 0C9.05142 0 9.20224 0.052684 9.31343 0.146462C9.42463 0.24024 9.4871 0.36743 9.4871 0.500052V7.00073L11.9775 4.20044C12.0481 4.12177 12.1447 4.06244 12.2552 4.0299C12.3656 3.99735 12.485 3.99304 12.5984 4.0175C12.7118 4.04196 12.814 4.0941 12.8924 4.16739C12.9707 4.24068 13.0217 4.33185 13.0388 4.42946C13.0499 4.49452 13.0456 4.56078 13.0263 4.62444C13.007 4.68811 12.9729 4.74794 12.9262 4.8005L9.36851 8.80092C9.3614 8.80892 9.34836 8.81292 9.34005 8.82092C9.30056 8.86002 9.25416 8.89375 9.20249 8.92094C9.18413 8.93393 9.16427 8.94532 9.1432 8.95494C9.06586 8.98751 8.9806 9.00447 8.89416 9.00447C8.80772 9.00447 8.72246 8.98751 8.64512 8.95494C8.62405 8.94532 8.60419 8.93393 8.58583 8.92094C8.53416 8.89375 8.48776 8.86002 8.44827 8.82092C8.43996 8.81292 8.42692 8.80892 8.4198 8.80092L4.86214 4.8005ZM5.63297 14.7515C5.63352 14.9988 5.54674 15.2407 5.38369 15.4462C5.22064 15.6518 4.98871 15.8117 4.71746 15.9057C4.51502 15.976 4.29665 16.0077 4.078 15.9984C3.85934 15.9892 3.6458 15.9393 3.45268 15.8524C3.25956 15.7654 3.09164 15.6435 2.96095 15.4953C2.83025 15.3472 2.74002 15.1766 2.69671 14.9956C2.65545 14.8242 2.65728 14.6474 2.70209 14.4767C2.74689 14.306 2.83367 14.1451 2.95682 14.0044C3.07997 13.8637 3.23675 13.7463 3.41702 13.6599C3.5973 13.5735 3.79706 13.52 4.0034 13.5028C4.20975 13.4855 4.41808 13.505 4.61494 13.5599C4.81181 13.6149 4.99282 13.704 5.14628 13.8216C5.29975 13.9392 5.42225 14.0826 5.50588 14.2426C5.58951 14.4026 5.6324 14.5757 5.63178 14.7505L5.63297 14.7515ZM15.1201 14.7515C15.1206 14.9988 15.0338 15.2407 14.8708 15.4462C14.7077 15.6518 14.4758 15.8117 14.2046 15.9057C14.0021 15.976 13.7838 16.0077 13.5651 15.9984C13.3464 15.9892 13.1329 15.9393 12.9398 15.8524C12.7467 15.7654 12.5787 15.6435 12.4481 15.4953C12.3174 15.3472 12.2271 15.1766 12.1838 14.9956C12.1444 14.8249 12.1478 14.6492 12.1935 14.4797C12.2393 14.3101 12.3266 14.1505 12.4497 14.0111C12.5728 13.8716 12.7291 13.7554 12.9085 13.6698C13.088 13.5842 13.2867 13.5311 13.4918 13.514C13.697 13.4969 13.9041 13.516 14.1 13.5703C14.2959 13.6246 14.4761 13.7127 14.6293 13.8291C14.7824 13.9455 14.9051 14.0876 14.9894 14.2463C15.0737 14.4049 15.1178 14.5767 15.1189 14.7505L15.1201 14.7515ZM15.4165 5.50058C15.2593 5.50058 15.1085 5.55326 14.9973 5.64704C14.8861 5.74082 14.8236 5.86801 14.8236 6.00063L14.2307 10.001H3.66439L2.35992 3.42036C2.337 3.3041 2.26613 3.19841 2.15982 3.12192C2.0535 3.04544 1.91857 3.00308 1.77883 3.00232H0.592944C0.435685 3.00232 0.284868 3.055 0.173669 3.14878C0.0624707 3.24255 0 3.36975 0 3.50237C0 3.63499 0.0624707 3.76218 0.173669 3.85596C0.284868 3.94974 0.435685 4.00242 0.592944 4.00242H1.27602L2.97184 12.5833C2.99395 12.7004 3.06507 12.807 3.17233 12.8837C3.27958 12.9604 3.41586 13.0021 3.55648 13.0014H14.2295C14.3867 13.0014 14.5375 12.9487 14.6487 12.8549C14.7599 12.7611 14.8224 12.6339 14.8224 12.5013C14.8224 12.3687 14.7599 12.2415 14.6487 12.1477C14.5375 12.0539 14.3867 12.0013 14.2295 12.0013H4.05455L3.85651 11.0012H14.2212C14.5102 11.0011 14.7892 10.912 15.0058 10.7507C15.2224 10.5894 15.3617 10.3669 15.3976 10.1251L16 6.00463C16 5.87201 15.9375 5.74482 15.8263 5.65104C15.7151 5.55726 15.5643 5.50458 15.4071 5.50458L15.4165 5.50058Z" fill="#DA498C"/>
</svg>
