<svg width="20" height="20" viewBox="0 0 20 20" fill="none" xmlns="http://www.w3.org/2000/svg">
<path d="M16.6695 0H14.7695C12.5895 0 11.4395 1.15 11.4395 3.33V5.23C11.4395 7.41 12.5895 8.56 14.7695 8.56H16.6695C18.8495 8.56 19.9995 7.41 19.9995 5.23V3.33C19.9995 1.15 18.8495 0 16.6695 0Z" fill="#8E8EA9"/>
<path d="M5.24 11.4297H3.34C1.15 11.4297 0 12.5797 0 14.7597V16.6597C0 18.8497 1.15 19.9997 3.33 19.9997H5.23C7.41 19.9997 8.56 18.8497 8.56 16.6697V14.7697C8.57 12.5797 7.42 11.4297 5.24 11.4297Z" fill="#8E8EA9"/>
<path d="M4.29 8.58C6.6593 8.58 8.58 6.6593 8.58 4.29C8.58 1.9207 6.6593 0 4.29 0C1.9207 0 0 1.9207 0 4.29C0 6.6593 1.9207 8.58 4.29 8.58Z" fill="#8E8EA9"/>
<path d="M15.7099 20.0019C18.0792 20.0019 19.9999 18.0812 19.9999 15.7119C19.9999 13.3426 18.0792 11.4219 15.7099 11.4219C13.3406 11.4219 11.4199 13.3426 11.4199 15.7119C11.4199 18.0812 13.3406 20.0019 15.7099 20.0019Z" fill="#8E8EA9"/>
</svg>
