<svg width="100" height="100" viewBox="0 0 100 100" fill="none" xmlns="http://www.w3.org/2000/svg">
<circle cx="50" cy="50" r="50" fill="#D75D72" fill-opacity="0.49"/>
<circle cx="49.5" cy="49.5" r="42.5" fill="#D75D72" fill-opacity="0.49"/>
<circle cx="49.5" cy="49.5" r="34.5" fill="#D75D72" fill-opacity="0.49"/>
<path d="M46.6831 64.8604C46.3181 64.8605 45.9576 64.7803 45.6271 64.6255C45.2965 64.4707 45.0041 64.245 44.7705 63.9646L36.3452 53.8495C36.1122 53.6017 35.9324 53.3089 35.8168 52.989C35.7011 52.6692 35.6522 52.3291 35.6728 51.9896C35.6935 51.6501 35.7834 51.3185 35.937 51.015C36.0906 50.7116 36.3046 50.4428 36.566 50.2251C36.8273 50.0074 37.1304 49.8455 37.4566 49.7493C37.7828 49.6531 38.1253 49.6247 38.4629 49.6657C38.8005 49.7068 39.1262 49.8165 39.4198 49.988C39.7135 50.1596 39.9689 50.3894 40.1705 50.6634L46.3079 58.0306L59.5825 35.0379C59.9132 34.4655 60.4577 34.0478 61.0963 33.8769C61.7349 33.7059 62.4153 33.7957 62.9877 34.1264C63.5601 34.4571 63.9778 35.0016 64.1487 35.6402C64.3197 36.2788 64.2299 36.9591 63.8992 37.5316L48.8379 63.6112C48.6372 63.9585 48.3557 64.2524 48.0173 64.4678C47.6788 64.6831 47.2934 64.8137 46.8938 64.8483C46.8229 64.8551 46.7518 64.8583 46.6807 64.858L46.6831 64.8604Z" fill="white" stroke="white"/>
</svg>
