<svg width="20" height="20" viewBox="0 0 20 20" fill="none" xmlns="http://www.w3.org/2000/svg">
<path opacity="0.5" d="M11.1061 20H8.8939C5.44737 20 3.72409 20 2.54903 18.9882C1.37396 17.9764 1.13025 16.2827 0.642837 12.8952L0.364067 10.9579C-0.0153731 8.3208 -0.205093 7.00229 0.335367 5.87495C0.875827 4.7476 2.02619 4.06234 4.32691 2.69181L5.71175 1.86687C7.80104 0.62229 8.8457 0 10 0C11.1543 0 12.199 0.62229 14.2882 1.86687L15.6731 2.69181C17.9738 4.06234 19.1242 4.7476 19.6646 5.87495C20.2051 7.00229 20.0154 8.3208 19.6359 10.9579L19.3572 12.8952C18.8697 16.2827 18.626 17.9764 17.451 18.9882C16.2759 20 14.5526 20 11.1061 20Z" fill="#8E8EA9"/>
</svg>
