<svg width="24" height="24" viewBox="0 0 24 24" fill="none" xmlns="http://www.w3.org/2000/svg">
<path d="M7 3C6.07 3 5.605 3 5.224 3.102C4.71513 3.23825 4.2511 3.5061 3.8786 3.8786C3.5061 4.2511 3.23825 4.71513 3.102 5.224C3 5.605 3 6.07 3 7V17C3 17.93 3 18.395 3.102 18.776C3.23825 19.2849 3.5061 19.7489 3.8786 20.1214C4.2511 20.4939 4.71513 20.7617 5.224 20.898C5.605 21 6.07 21 7 21M16.5 16.5C16.5 16.5 21 13.186 21 12C21 10.814 16.5 7.5 16.5 7.5M20 12H8" stroke="#CD0F0F" stroke-width="1.5" stroke-linecap="round" stroke-linejoin="round"/>
</svg>
