<svg width="55" height="55" viewBox="0 0 55 55" fill="none" xmlns="http://www.w3.org/2000/svg">
<path d="M5.45872 34.7462L1.27875 30.5662C-0.42625 28.8612 -0.42625 26.0562 1.27875 24.3512L5.45872 20.1712C6.17372 19.4562 6.75122 18.0537 6.75122 17.0637V11.1513C6.75122 8.73133 8.73125 6.75122 11.1512 6.75122H17.0637C18.0537 6.75122 19.4562 6.1738 20.1712 5.4588L24.3511 1.27875C26.0561 -0.42625 28.8614 -0.42625 30.5664 1.27875L34.7464 5.4588C35.4614 6.1738 36.8636 6.75122 37.8536 6.75122H43.7664C46.1864 6.75122 48.1661 8.73133 48.1661 11.1513V17.0637C48.1661 18.0537 48.7436 19.4562 49.4586 20.1712L53.6389 24.3512C55.3439 26.0562 55.3439 28.8612 53.6389 30.5662L49.4586 34.7462C48.7436 35.4612 48.1661 36.8637 48.1661 37.8537V43.7662C48.1661 46.1862 46.1864 48.1662 43.7664 48.1662H37.8536C36.8636 48.1662 35.4614 48.7437 34.7464 49.4587L30.5664 53.6387C28.8614 55.3437 26.0561 55.3437 24.3511 53.6387L20.1712 49.4587C19.4562 48.7437 18.0537 48.1662 17.0637 48.1662H11.1512C8.73125 48.1662 6.75122 46.1862 6.75122 43.7662V37.8537C6.75122 36.8362 6.17372 35.4337 5.45872 34.7462Z" fill="#68372E"/>
<path d="M35.7345 38.4316C34.1945 38.4316 32.957 37.1941 32.957 35.6816C32.957 34.1691 34.1945 32.9316 35.707 32.9316C37.2195 32.9316 38.457 34.1691 38.457 35.6816C38.457 37.1941 37.247 38.4316 35.7345 38.4316Z" fill="#DECDC5"/>
<path d="M19.2614 21.9316C17.7214 21.9316 16.4839 20.6941 16.4839 19.1816C16.4839 17.6691 17.7214 16.4316 19.2339 16.4316C20.7464 16.4316 21.9839 17.6691 21.9839 19.1816C21.9839 20.6941 20.7739 21.9316 19.2614 21.9316Z" fill="#DECDC5"/>
<path d="M19.2324 37.744C18.7099 37.744 18.1874 37.5515 17.7749 37.139C16.9774 36.3415 16.9774 35.0212 17.7749 34.2237L34.275 17.7239C35.0725 16.9264 36.3925 16.9264 37.19 17.7239C37.9875 18.5214 37.9875 19.8415 37.19 20.639L20.6899 37.139C20.2774 37.5515 19.7549 37.744 19.2324 37.744Z" fill="#DECDC5"/>
</svg>
