<svg width="17" height="18" viewBox="0 0 17 18" fill="none" xmlns="http://www.w3.org/2000/svg">
<path d="M8.03019 15.9548C4.0849 15.9548 0.872803 12.5805 0.872803 8.4359C0.872803 4.29133 4.0849 0.916992 8.03019 0.916992C11.9755 0.916992 15.1876 4.29133 15.1876 8.4359C15.1876 12.5805 11.9755 15.9548 8.03019 15.9548ZM8.03019 2.01732C4.65749 2.01732 1.92023 4.90018 1.92023 8.4359C1.92023 11.9716 4.65749 14.8545 8.03019 14.8545C11.4029 14.8545 14.1402 11.9716 14.1402 8.4359C14.1402 4.90018 11.4029 2.01732 8.03019 2.01732Z" fill="#8E8EA9"/>
<path d="M15.3621 16.6884C15.2295 16.6884 15.0968 16.6371 14.992 16.527L13.5955 15.0599C13.393 14.8472 13.393 14.4951 13.5955 14.2824C13.798 14.0696 14.1332 14.0696 14.3357 14.2824L15.7322 15.7495C15.9347 15.9622 15.9347 16.3143 15.7322 16.527C15.6275 16.6371 15.4948 16.6884 15.3621 16.6884Z" fill="#8E8EA9"/>
</svg>
